<svg xmlns="http://www.w3.org/2000/svg" viewBox="0 0 512 512" fill="none">
  <rect width="512" height="512" rx="96" fill="#4F46E5"/>
  <path d="M144 160C144 142.327 158.327 128 176 128H336C353.673 128 368 142.327 368 160V272C368 289.673 353.673 304 336 304H240L192 352V304H176C158.327 304 144 289.673 144 272V160Z" fill="white"/>
  <path d="M208 200C208 194.477 212.477 190 218 190H294C299.523 190 304 194.477 304 200C304 205.523 299.523 210 294 210H218C212.477 210 208 205.523 208 200Z" fill="#4F46E5"/>
  <path d="M208 240C208 234.477 212.477 230 218 230H262C267.523 230 272 234.477 272 240C272 245.523 267.523 250 262 250H218C212.477 250 208 245.523 208 240Z" fill="#4F46E5"/>
  <path d="M320 336C320 353.673 305.673 368 288 368H272V416L224 368H176C158.327 368 144 353.673 144 336V336" stroke="white" stroke-width="16" stroke-linecap="round" fill="none"/>
</svg>
